<svg width="17" height="20" viewBox="0 0 17 20" fill="none" xmlns="http://www.w3.org/2000/svg">
<path d="M13.6026 10.6279C13.5774 8.09455 15.6685 6.87949 15.762 6.8181C14.5868 5.09977 12.7558 4.864 12.1042 4.83717C10.5473 4.67903 9.06471 5.75426 8.27485 5.75426C7.48662 5.75426 6.26627 4.86034 4.97519 4.8831C3.27678 4.90831 1.7113 5.87093 0.837297 7.39129C-0.926562 10.4511 0.386068 14.9858 2.1048 17.4691C2.94507 18.683 3.94712 20.0489 5.26178 19.9989C6.52888 19.9489 7.00694 19.1793 8.53868 19.1793C10.0704 19.1793 10.5005 19.9989 11.8408 19.9733C13.2034 19.9485 14.0673 18.7362 14.9006 17.5175C15.8653 16.1073 16.2624 14.7418 16.286 14.6727C16.2563 14.6589 13.6298 13.6528 13.6026 10.6279Z" fill="#FEFEFE"/>
<path d="M11.0842 3.19316C11.7814 2.3468 12.2538 1.17076 12.1253 0C11.1192 0.0406513 9.90127 0.668713 9.1789 1.51426C8.53173 2.26468 7.96586 3.45942 8.11749 4.60904C9.23988 4.69603 10.3846 4.03789 11.0842 3.19316Z" fill="#FEFEFE"/>
</svg>
