<svg width="20" height="20" viewBox="0 0 20 20" fill="none" xmlns="http://www.w3.org/2000/svg">
<path d="M10 4.16667C11.3473 4.16667 12.5844 4.62794 13.5719 5.39505L16.6029 2.50341C14.8407 0.949961 12.5339 0 10 0C6.16034 0 2.83057 2.1666 1.15485 5.34154L4.52521 8.00232C5.34165 5.76614 7.48124 4.16667 10 4.16667Z" fill="#F44336"/>
<path d="M19.9134 11.2516C19.9655 10.8419 20 10.424 20 10.0001C20 9.28521 19.9219 8.5891 19.7794 7.91675H10V12.0834H15.4052C14.9679 13.2199 14.1894 14.1815 13.1983 14.8496L16.5812 17.5203C18.3745 15.9463 19.6016 13.742 19.9134 11.2516Z" fill="#2196F3"/>
<path d="M4.16667 10C4.16667 9.29714 4.29738 8.62636 4.5252 8.00233L1.15484 5.34155C0.420278 6.73336 0 8.31681 0 10C0 11.6644 0.412547 13.2303 1.13185 14.6108L4.50648 11.9466C4.29036 11.337 4.16667 10.6837 4.16667 10Z" fill="#FFC107"/>
<path d="M9.99999 15.8333C7.46205 15.8333 5.30867 14.2095 4.50647 11.9465L1.13184 14.6107C2.79937 17.8111 6.1415 19.9999 9.99999 19.9999C12.5231 19.9999 14.824 19.0626 16.5812 17.5202L13.1983 14.8495C12.2843 15.4657 11.1903 15.8333 9.99999 15.8333Z" fill="#00B060"/>
<path opacity="0.1" d="M9.99999 19.7915C7.05693 19.7915 4.41059 18.5772 2.53961 16.6426C4.37112 18.698 7.03038 19.9998 9.99999 19.9998C12.9421 19.9998 15.5794 18.7237 17.4068 16.7005C15.5413 18.6037 12.9151 19.7915 9.99999 19.7915Z" fill="black"/>
<path opacity="0.1" d="M10 11.875V12.0833H15.4052L15.4896 11.875H10Z" fill="black"/>
<path d="M19.9954 10.1224C19.996 10.0813 20 10.041 20 9.99987C20 9.98822 19.9982 9.97698 19.9981 9.96533C19.9976 10.0178 19.9949 10.0697 19.9954 10.1224Z" fill="#E6E6E6"/>
<path opacity="0.2" d="M10 7.91675V8.12508H19.8213C19.8082 8.05632 19.7939 7.98501 19.7794 7.91675H10Z" fill="white"/>
<path d="M19.7794 7.91667H10V12.0833H15.4052C14.5646 14.268 12.481 15.8333 10 15.8333C6.77836 15.8333 4.16667 13.2216 4.16667 10C4.16667 6.77831 6.77836 4.16667 10 4.16667C11.1682 4.16667 12.2449 4.52555 13.1571 5.11724C13.2967 5.20798 13.4408 5.29317 13.5719 5.39505L16.6029 2.50341L16.5345 2.45082C14.7808 0.930888 12.5029 0 10 0C4.47713 0 0 4.47713 0 10C0 15.5228 4.47713 20 10 20C15.0981 20 19.2962 16.1823 19.9134 11.2515C19.9655 10.8418 20 10.4239 20 10C20 9.28513 19.9219 8.58902 19.7794 7.91667Z" fill="url(#paint0_linear_253_546)"/>
<path opacity="0.1" d="M13.1571 4.90892C12.2449 4.31723 11.1682 3.95834 9.99999 3.95834C6.77835 3.95834 4.16666 6.56999 4.16666 9.79168C4.16666 9.82682 4.16713 9.85429 4.16774 9.88933C4.22394 6.71627 6.8135 4.16668 9.99999 4.16668C11.1682 4.16668 12.2449 4.52556 13.1571 5.11725C13.2967 5.20799 13.4407 5.29318 13.5719 5.39506L16.6029 2.50342L13.5719 5.18673C13.4407 5.08485 13.2967 4.99965 13.1571 4.90892Z" fill="black"/>
<path opacity="0.2" d="M10 0.208333C12.4792 0.208333 14.7358 1.12366 16.4827 2.618L16.6029 2.50341L16.5112 2.42356C14.7575 0.903633 12.5029 0 10 0C4.47713 0 0 4.47713 0 10C0 10.0351 0.00488283 10.0691 0.00523883 10.1042C0.0616963 4.62987 4.51228 0.208333 10 0.208333Z" fill="white"/>
<defs>
<linearGradient id="paint0_linear_253_546" x1="0" y1="10" x2="20" y2="10" gradientUnits="userSpaceOnUse">
<stop stop-color="white" stop-opacity="0.2"/>
<stop offset="1" stop-color="white" stop-opacity="0"/>
</linearGradient>
</defs>
</svg>
