<svg width="23" height="22" viewBox="0 0 23 22" fill="none" xmlns="http://www.w3.org/2000/svg">
<path d="M8 10.7975C8.05216 10.0788 8.36127 9.40286 8.87081 8.89331C9.38036 8.38377 10.0563 8.07466 10.775 8.0225L12.1325 6.6575C11.3718 6.45721 10.5719 6.45981 9.81257 6.66505C9.05321 6.87028 8.36091 7.27098 7.8047 7.8272C7.24848 8.38341 6.84778 9.07571 6.64255 9.83507C6.43731 10.5944 6.43471 11.3943 6.635 12.155L8 10.7975ZM22.205 10.745C21.345 8.5049 19.8486 6.56527 17.9 5.165L21.5 1.5575L20.4425 0.5L0.5 20.4425L1.5575 21.5L5.3825 17.675C7.08791 18.6755 9.02303 19.2181 11 19.25C13.4446 19.1581 15.8087 18.3518 17.8001 16.9309C19.7915 15.51 21.3229 13.5368 22.205 11.255C22.2646 11.0902 22.2646 10.9098 22.205 10.745ZM14 11C13.9968 11.5251 13.8559 12.0401 13.5913 12.4937C13.3267 12.9472 12.9477 13.3234 12.4922 13.5845C12.0367 13.8457 11.5206 13.9827 10.9955 13.982C10.4704 13.9812 9.95473 13.8426 9.5 13.58L13.58 9.5C13.8496 9.9543 13.9945 10.4717 14 11ZM11 17.75C9.42655 17.7225 7.88292 17.316 6.5 16.565L8.405 14.66C9.2715 15.2612 10.3217 15.539 11.3721 15.4449C12.4225 15.3507 13.4065 14.8906 14.1523 14.1448C14.8981 13.399 15.3582 12.415 15.4524 11.3646C15.5465 10.3142 15.2687 9.264 14.6675 8.3975L16.82 6.245C18.5409 7.42624 19.8867 9.07657 20.6975 11C19.175 14.8025 14.975 17.75 11 17.75Z" fill="#CCCCCC"/>
</svg>
